<svg width="97" height="65" viewBox="0 0 97 65" fill="none" xmlns="http://www.w3.org/2000/svg">
<path d="M79.4451 7.05869V23.9221C79.4451 23.9576 79.4264 23.9752 79.3889 23.9752L76.8307 23.9721C76.7808 23.9721 76.7559 23.9472 76.7559 23.8972V0.249577C76.7559 -0.0586028 76.8401 -0.0835921 77.0088 0.174613C77.0983 0.312044 77.1983 0.440106 77.3086 0.558797C82.5331 6.2851 87.7743 12.0531 93.032 17.8626C93.1237 17.9626 93.1694 17.945 93.1694 17.8095V1.0523C93.1694 1.01898 93.1861 1.00233 93.2194 1.00233L95.7963 0.999201C95.8567 0.999201 95.8868 1.03044 95.8868 1.09291V24.7093C95.8868 24.8488 95.84 24.8675 95.7463 24.7655C91.0966 19.6638 86.4333 14.5258 81.7564 9.35129C81.0089 8.52463 80.2738 7.74584 79.5513 7.01496C79.4804 6.94208 79.4451 6.95665 79.4451 7.05869Z" fill="#4C2F47"/>
<path d="M9.82168 13.4703C8.26829 12.8457 6.76175 12.2449 5.30207 11.6681C4.60449 11.3932 3.83197 10.9185 2.98448 10.2438C2.28275 9.68369 1.78404 9.00695 1.48835 8.21358C0.470112 5.50556 1.84755 2.78192 4.36191 1.54815C6.00692 0.742309 7.65922 0.39769 9.31881 0.514298C11.9134 0.695458 13.9279 1.83344 15.3627 3.92822C15.3677 3.93615 15.3709 3.945 15.3724 3.95425C15.3739 3.96351 15.3734 3.97297 15.3711 3.98203C15.3688 3.9911 15.3646 3.99959 15.3589 4.00698C15.3531 4.01438 15.3459 4.02052 15.3376 4.02505L12.8764 5.31191C12.8223 5.34105 12.7785 5.32961 12.7452 5.27754C11.8498 3.86159 10.4787 3.17547 8.63165 3.2192C6.91377 3.25981 5.11779 3.95945 4.50247 5.63049C3.45924 8.46658 7.66338 9.70347 9.51871 10.2907C11.6489 10.9685 13.9728 12.0523 15.2346 13.9482C16.6214 16.0347 16.4403 18.9146 15.1815 20.8697C14.3174 22.2129 13.0753 23.1936 11.4552 23.8121C8.96066 24.7678 6.53271 24.6939 4.17138 23.5902C2.00579 22.5783 0.618993 20.7969 0.0109627 18.2462C-0.0202717 18.1149 0.0297068 18.0368 0.160892 18.0119L3.05632 17.4434C3.20624 17.4142 3.28433 17.4767 3.29057 17.6308C3.42488 20.5887 6.20163 22.0129 8.97523 21.6787C11.5646 21.3633 13.1919 19.3019 12.9108 16.6813C12.8421 16.0544 12.6036 15.5297 12.1955 15.1071C11.4729 14.3616 10.6817 13.816 9.82168 13.4703Z" fill="#4C2F47"/>
<path d="M23.0554 21.3801L33.5408 21.3863C33.5672 21.3863 33.5927 21.3969 33.6115 21.4156C33.6302 21.4343 33.6408 21.4597 33.6408 21.4863L33.647 23.8695C33.647 23.896 33.6364 23.9213 33.6177 23.9402C33.5989 23.9589 33.5736 23.9694 33.547 23.9694H19.8538C19.8273 23.9694 19.802 23.9589 19.7832 23.9402C19.7645 23.9213 19.7539 23.896 19.7539 23.8695V1.10581C19.7539 1.0793 19.7645 1.05388 19.7832 1.03514C19.802 1.01639 19.8273 1.00586 19.8538 1.00586H33.5346C33.561 1.00586 33.5864 1.01639 33.6051 1.03514C33.624 1.05388 33.6345 1.0793 33.6345 1.10581L33.6439 3.52648C33.6439 3.53961 33.6413 3.55261 33.6363 3.56473C33.6313 3.57686 33.6238 3.58787 33.6146 3.59716C33.6053 3.60643 33.5943 3.6138 33.5821 3.61882C33.5701 3.62385 33.5571 3.62643 33.5439 3.62643L23.0585 3.61394C23.0319 3.61394 23.0066 3.62447 22.9878 3.64321C22.9691 3.66195 22.9585 3.68737 22.9585 3.71389L22.9554 9.96389C22.9554 9.99041 22.966 10.0158 22.9847 10.0346C23.0035 10.0533 23.0288 10.0638 23.0554 10.0638L33.2191 10.0607C33.2456 10.0607 33.2709 10.0713 33.2898 10.09C33.3084 10.1087 33.319 10.1342 33.319 10.1607L33.3128 12.5845C33.3128 12.5976 33.3102 12.6106 33.3052 12.6227C33.3002 12.6348 33.2927 12.6459 33.2835 12.6551C33.2742 12.6644 33.2632 12.6718 33.251 12.6768C33.239 12.6818 33.226 12.6844 33.2128 12.6844L23.0554 12.6719C23.0288 12.6719 23.0035 12.6825 22.9847 12.7012C22.966 12.7199 22.9554 12.7454 22.9554 12.7719V21.2802C22.9554 21.3066 22.966 21.332 22.9847 21.3509C23.0035 21.3696 23.0288 21.3801 23.0554 21.3801Z" fill="#4C2F47"/>
<path d="M46.1255 17.9603L53.6937 1.18741C53.7499 1.06663 53.8447 1.00625 53.978 1.00625L57.1202 1C57.2305 1 57.2628 1.04998 57.217 1.14993L46.135 25.1224C46.1142 25.1661 46.0933 25.1661 46.0725 25.1224L34.9625 1.18116C34.9103 1.06663 34.9468 1.00937 35.0718 1.00937L38.1702 1C38.3139 1 38.4149 1.06455 38.4731 1.19365L46.0818 17.9603C46.0964 17.9915 46.1111 17.9915 46.1255 17.9603Z" fill="#4C2F47"/>
<path d="M62.7398 3.71818L62.7336 9.95881C62.7336 9.98616 62.7444 10.0124 62.7638 10.0317C62.7832 10.051 62.8093 10.0619 62.8366 10.0619H72.9473C72.9608 10.0619 72.9742 10.0646 72.9867 10.0697C72.9991 10.0749 73.0105 10.0825 73.0201 10.0921C73.0297 10.1017 73.0373 10.113 73.0425 10.1255C73.0476 10.138 73.0503 10.1514 73.0503 10.165L73.0379 12.5825C73.0379 12.6099 73.0269 12.6361 73.0077 12.6554C72.9883 12.6747 72.962 12.6856 72.9347 12.6856L62.8429 12.6762C62.8293 12.6762 62.8159 12.6789 62.8035 12.6841C62.791 12.6892 62.7796 12.6968 62.77 12.7064C62.7604 12.716 62.7528 12.7273 62.7477 12.7398C62.7425 12.7524 62.7398 12.7657 62.7398 12.7793L62.7367 21.2813C62.7367 21.3086 62.7475 21.3349 62.7669 21.3542C62.7863 21.3735 62.8124 21.3843 62.8398 21.3843H73.2189C73.2324 21.3843 73.2459 21.387 73.2584 21.3922C73.2709 21.3974 73.2823 21.405 73.2919 21.4145C73.3014 21.4241 73.309 21.4355 73.3142 21.448C73.3194 21.4606 73.3221 21.474 73.3221 21.4875V23.8707C73.3221 23.8979 73.3111 23.9242 73.2919 23.9436C73.2725 23.9628 73.2463 23.9737 73.2189 23.9737L59.6133 23.9706C59.586 23.9706 59.5597 23.9597 59.5403 23.9404C59.5211 23.9211 59.5101 23.8948 59.5101 23.8674L59.5039 1.1101C59.5039 1.08277 59.5147 1.05655 59.5341 1.03722C59.5535 1.01789 59.5797 1.00703 59.607 1.00703L73.2189 1.00391C73.2463 1.00391 73.2725 1.01477 73.2919 1.0341C73.3111 1.05343 73.3221 1.07964 73.3221 1.10698V3.52765C73.3221 3.55499 73.3111 3.5812 73.2919 3.60053C73.2725 3.61987 73.2463 3.63073 73.2189 3.63073L62.8429 3.6151C62.8155 3.6151 62.7894 3.62596 62.77 3.6453C62.7507 3.66462 62.7398 3.69084 62.7398 3.71818Z" fill="#4C2F47"/>
<path d="M46.083 35.1223C46.0809 35.119 46.0782 35.1163 46.075 35.1144C46.0716 35.1126 46.068 35.1116 46.0642 35.1116C46.0604 35.1116 46.0567 35.1126 46.0535 35.1144C46.0501 35.1163 46.0474 35.119 46.0455 35.1223L38.4742 51.9264C38.451 51.9793 38.4127 52.0246 38.3638 52.0561C38.3149 52.0878 38.2578 52.1046 38.1993 52.1043H35.1352C34.9666 52.1043 34.9176 52.0273 34.9884 51.8733L45.9955 28.0664C46.0392 27.9727 46.0828 27.9727 46.1266 28.0664L57.2243 51.9732C57.2658 52.0606 57.2378 52.1043 57.1399 52.1043H53.9571C53.83 52.1043 53.7394 52.0461 53.6854 51.9295L46.083 35.1223Z" fill="#4C2F47"/>
<path d="M95.9997 29.3379C96.0062 29.3312 96.0144 29.3267 96.0236 29.3251C96.0328 29.3233 96.0423 29.3247 96.051 29.3286C96.0598 29.3327 96.0672 29.3393 96.0725 29.3475C96.0778 29.3559 96.0807 29.3656 96.0808 29.3754L96.0652 29.9033C96.0632 29.9595 96.0423 30.0085 96.0028 30.0501C95.0803 30.9643 94.0797 31.2204 93.0011 30.8184C92.3108 30.5624 91.786 29.9752 91.2113 29.5378C89.5434 28.2698 88.3129 29.188 87.001 30.3063C85.8078 31.3245 84.3242 31.187 83.2092 30.1313C81.9316 28.9225 80.5917 28.3822 79.055 29.7003C78.3178 30.3343 77.6462 30.9465 76.603 31.0059C76.5838 31.0072 76.5645 31.0045 76.5465 30.9977C76.5284 30.9911 76.512 30.9805 76.4983 30.9669C76.4848 30.9533 76.4742 30.9368 76.4674 30.9188C76.4608 30.9008 76.458 30.8814 76.4593 30.8622L76.4781 30.553C76.4823 30.4655 76.5281 30.4165 76.6156 30.4062C77.4995 30.2937 78.2897 29.6191 78.9488 29.0694C79.9451 28.2385 81.1571 27.9136 82.2909 28.7133C82.8281 29.0923 83.3466 29.4712 83.8463 29.8502C84.8063 30.5811 85.7547 30.5666 86.6918 29.8065C87.279 29.3317 87.8828 28.908 88.5034 28.5352C90.1276 27.5576 91.655 29.2567 92.8637 30.0532C94.0007 30.8029 95.1001 30.1438 95.9997 29.3379Z" fill="#008995"/>
<path d="M4.85138 48.6449C6.53803 49.9817 9.57713 50.191 11.3669 48.6542C12.6058 47.5923 13.1139 46.2253 12.8911 44.5531C12.7224 43.2882 11.4699 42.2075 10.3955 41.7109C9.16276 41.1404 7.86028 40.6156 6.48805 40.1367C5.41358 39.7598 4.32142 39.1756 3.21156 38.3844C2.40155 37.8055 1.83309 37.0861 1.50616 36.2261C0.378608 33.2589 2.06526 30.4227 4.86699 29.2639C6.57656 28.556 8.33192 28.329 10.1331 28.5831C12.2779 28.8829 14.0187 29.973 15.3555 31.8532C15.3649 31.866 15.3712 31.8804 15.3742 31.8959C15.3773 31.9113 15.3768 31.9273 15.373 31.9426C15.3691 31.9578 15.3618 31.972 15.3517 31.984C15.3417 31.9962 15.3291 32.006 15.3149 32.0126L12.8942 33.2338C12.8297 33.2651 12.7766 33.2526 12.7349 33.1964C11.7292 31.8159 10.3996 31.1339 8.7463 31.1506C7.35117 31.1672 6.16738 31.6149 5.19495 32.4936C4.70561 32.9371 4.42554 33.54 4.35475 34.3021C4.23918 35.5608 5.57289 36.7415 6.59737 37.1412C7.94462 37.6682 9.4293 38.2314 11.0514 38.8311C14.712 40.1835 17.0204 43.1164 15.9145 47.2081C15.3367 49.3508 13.4158 51.0967 11.4044 51.8153C8.37045 52.9001 5.59475 52.6012 3.07725 50.9188C1.45099 49.8298 0.432748 48.2409 0.0225361 46.1524C0.00171321 46.0421 0.0464802 45.9765 0.156842 45.9557L3.09912 45.4434C3.23656 45.4205 3.30527 45.4787 3.30527 45.6183C3.29486 46.8135 3.81022 47.8224 4.85138 48.6449Z" fill="#4C2F47"/>
<path d="M58.6247 47.6566C58.4393 47.188 58.2842 46.7019 58.1593 46.198C58.128 46.0648 58.1791 45.9855 58.3123 45.9606L61.2734 45.439C61.2931 45.4356 61.3134 45.4367 61.3327 45.4424C61.3519 45.4481 61.3696 45.4581 61.3844 45.4716C61.3993 45.4852 61.4107 45.502 61.418 45.5206C61.4253 45.5393 61.4281 45.5595 61.4264 45.5796C61.3109 46.7134 62.1729 48.0252 62.9912 48.653C63.6659 49.1735 64.4062 49.4953 65.2121 49.6181C67.0299 49.893 68.6384 49.6119 69.8784 48.2938C70.3323 47.8107 70.653 47.3026 70.8404 46.7696C71.5401 44.781 70.9383 43.1693 69.0352 41.9344C68.5104 41.593 67.2443 41.0692 65.237 40.3634C64.3687 40.0573 63.619 39.7355 62.9881 39.3982C62.2198 38.988 61.5482 38.5497 60.9735 38.0833C60.024 37.3118 59.3743 35.8937 59.2963 34.6944C59.1495 32.4517 60.5737 30.4121 62.6788 29.425C64.4134 28.6129 66.2292 28.3256 68.1262 28.563C70.4 28.8483 72.1752 29.9467 73.4516 31.8582C73.4954 31.9228 73.4829 31.9738 73.4141 32.0113L71.0809 33.245C71.0143 33.2783 70.9592 33.2658 70.9154 33.2076C69.9284 31.8874 68.6863 31.2044 67.1892 31.1586C65.6545 31.1107 64.3718 31.5573 63.341 32.4986C63.0141 32.7964 62.7654 33.2378 62.5946 33.8228C62.0699 35.6188 64.0063 36.9838 65.4868 37.4555C67.4172 38.0718 69.158 38.7726 70.7093 39.5576C71.994 40.2051 72.9706 41.1349 73.6391 42.3468C75.713 46.1043 73.2986 50.5052 69.488 51.8389C66.3958 52.9195 63.5733 52.5646 61.0204 50.7739C59.948 50.022 59.1495 48.983 58.6247 47.6566Z" fill="#4C2F47"/>
<path d="M22.9554 31.7533V38.0127C22.9554 38.0409 22.9667 38.0678 22.9866 38.0877C23.0065 38.1077 23.0334 38.1189 23.0616 38.1189H33.2159C33.2441 38.1189 33.2711 38.1301 33.291 38.15C33.3109 38.1699 33.3221 38.1969 33.3221 38.225L33.3097 40.6395C33.3097 40.6677 33.2984 40.6946 33.2785 40.7145C33.2586 40.7346 33.2317 40.7457 33.2035 40.7457L23.0616 40.7394C23.0334 40.7394 23.0065 40.7507 22.9866 40.7706C22.9667 40.7905 22.9554 40.8174 22.9554 40.8456V49.3102C22.9554 49.3384 22.9667 49.3653 22.9866 49.3853C23.0065 49.4052 23.0334 49.4164 23.0616 49.4164L33.5313 49.4195C33.5595 49.4195 33.5866 49.4307 33.6065 49.4507C33.6264 49.4706 33.6376 49.4975 33.6376 49.5257L33.6407 51.9276C33.6407 51.9557 33.6295 51.9828 33.6096 52.0027C33.5897 52.0226 33.5627 52.0339 33.5346 52.0339H19.8601C19.8319 52.0339 19.805 52.0226 19.7851 52.0027C19.7651 51.9828 19.7539 51.9557 19.7539 51.9276V29.1765C19.7539 29.1625 19.7566 29.1487 19.762 29.1359C19.7673 29.123 19.7752 29.1112 19.7851 29.1013C19.7949 29.0914 19.8066 29.0837 19.8194 29.0783C19.8323 29.073 19.8461 29.0703 19.8601 29.0703H33.5313C33.5595 29.0703 33.5866 29.0814 33.6065 29.1013C33.6264 29.1212 33.6376 29.1483 33.6376 29.1765L33.6439 31.5377C33.6439 31.5517 33.6412 31.5655 33.6357 31.5784C33.6305 31.5914 33.6226 31.603 33.6127 31.6129C33.6028 31.6228 33.5912 31.6305 33.5783 31.6359C33.5655 31.6412 33.5516 31.644 33.5377 31.644L23.0616 31.6472C23.0334 31.6472 23.0065 31.6583 22.9866 31.6782C22.9667 31.6981 22.9554 31.7252 22.9554 31.7533Z" fill="#4C2F47"/>
<path d="M95.75 33.0089C95.7959 32.9443 95.8594 32.8912 95.9406 32.8496C96.0822 32.7726 96.1311 32.8121 96.0874 32.9683C96.0604 33.0641 96.0562 33.1578 96.0749 33.2494C96.104 33.3951 96.0582 33.5107 95.9375 33.5961C95.1598 34.1458 94.2102 34.7424 93.2576 34.3488C92.7422 34.1334 92.2269 33.846 91.8146 33.4619C90.056 31.8282 88.8473 32.0906 87.1607 33.5961C83.7998 36.5977 82.6504 30.8444 79.6769 32.6966C79.2771 32.9465 78.9064 33.2245 78.565 33.5305C78.0507 33.9907 77.3989 34.3228 76.6097 34.5269C76.5513 34.5414 76.5191 34.5196 76.5129 34.4612L76.466 33.9833C76.4576 33.9022 76.4941 33.8563 76.5753 33.846C77.1917 33.7648 77.7529 33.4992 78.2588 33.0495C79.2396 32.1812 80.6045 31.1349 81.9633 31.9594C82.4349 32.2436 82.944 32.5185 83.3407 32.9027C84.3276 33.8616 85.5708 34.2176 86.7265 33.2307C87.4136 32.6456 88.0976 32.1759 88.7785 31.822C89.3408 31.5284 90.0685 31.6252 90.6183 31.9219C91.0702 32.1635 91.4637 32.4331 91.799 32.7309C92.7079 33.5399 93.8167 34.2958 95.0254 33.4712C95.19 33.3587 95.3607 33.2618 95.5377 33.1807C95.623 33.1411 95.6938 33.0839 95.75 33.0089Z" fill="#008995"/>
<path d="M95.8942 36.3092C96.0004 36.2093 96.0618 36.2322 96.0784 36.3779L96.0972 36.5466C96.1139 36.6881 96.0733 36.81 95.9754 36.912C94.9696 37.9334 93.5828 38.2519 92.421 37.3525C92.0232 37.0443 91.6359 36.7371 91.2591 36.431C90.9717 36.1936 90.5343 36.0093 90.2001 35.8345C89.6973 35.5751 89.082 35.7219 88.6103 36.0031C88.0085 36.3633 87.4141 36.7912 86.8269 37.2868C86.1709 37.8397 85.2183 38.0583 84.4375 37.7367C83.9023 37.518 83.3358 37.1338 82.7382 36.584C82.5613 36.4216 82.3665 36.2895 82.1542 36.1874C81.5888 35.9156 81.1891 35.5564 80.5018 35.7688C79.3899 36.1156 78.6403 36.9839 77.6971 37.5742C77.4013 37.7595 77.0369 37.8615 76.6039 37.8803C76.5184 37.8824 76.4758 37.8407 76.4758 37.7553L76.4727 37.3649C76.4727 37.2691 76.5206 37.2171 76.6163 37.2087C77.8845 37.1182 78.4342 36.2093 79.4055 35.6002C81.0548 34.5632 82.2948 35.4252 83.5535 36.5247C86.6113 39.2015 87.8295 33.4262 91.131 35.6439C91.868 36.1405 92.4865 36.9057 93.3705 37.1338C94.2304 37.3565 95.0717 37.0816 95.8942 36.3092Z" fill="#008995"/>
<path d="M87.1678 39.7746C88.5951 38.494 90.0194 37.938 91.5812 39.4311C92.2934 40.112 93.5927 40.9927 94.6297 40.543C95.0003 40.3826 95.4553 40.1098 95.9946 39.7247C96.0321 39.6996 96.0509 39.709 96.0509 39.7527L96.0602 40.2306C96.0602 40.2463 96.057 40.262 96.0505 40.2765C96.044 40.291 96.0347 40.3041 96.0227 40.3149C94.8025 41.4477 93.6124 41.6101 92.4526 40.8022C91.7342 40.3025 91.0689 39.5715 90.235 39.3092C87.6362 38.4971 86.69 42.7199 83.8507 40.849C82.4232 39.9121 81.2769 38.3503 79.3811 39.762C78.4971 40.4211 77.7912 41.1614 76.6231 41.33C76.5003 41.3467 76.4439 41.2936 76.4543 41.1708L76.4794 40.899C76.4877 40.7908 76.5449 40.722 76.6511 40.6929C77.3821 40.5034 77.9879 40.1963 78.4691 39.7715C79.506 38.8626 80.5836 38.0754 81.9798 38.8189C82.9324 39.3248 83.5884 40.2057 84.7127 40.5805C85.5936 40.8741 86.5868 40.2931 87.1678 39.7746Z" fill="#008995"/>
<path d="M84.4142 43.9129C85.6791 44.6251 87.1378 43.2258 88.0529 42.5261C91.0077 40.2741 92.2196 45.1811 94.7653 43.8911C95.1442 43.6995 95.5263 43.4715 95.9114 43.2071C96.024 43.1301 96.0844 43.1592 96.0926 43.2945C96.1093 43.5673 96.0187 43.785 95.821 43.9473C94.5653 44.9926 93.3368 45.0135 92.1352 44.0098C91.7313 43.6724 91.3034 43.3455 90.8516 43.0291C89.1493 41.839 87.9779 43.3539 86.7223 44.2316C83.6676 46.368 82.5088 41.3018 79.8227 42.9229C79.3229 43.2227 78.8981 43.5278 78.5483 43.838C77.9965 44.3253 77.3707 44.6397 76.6712 44.7814C76.6457 44.7865 76.6193 44.7858 76.5941 44.7792C76.5689 44.7726 76.5456 44.7602 76.5257 44.743C76.506 44.726 76.4901 44.7044 76.4796 44.6802C76.4691 44.656 76.4641 44.6297 76.4649 44.6033L76.4775 44.2815C76.4816 44.1754 76.5358 44.115 76.6399 44.1003C78.8108 43.7912 80.0319 40.4928 82.5526 42.6167C83.1356 43.1081 83.7562 43.5403 84.4142 43.9129Z" fill="#008995"/>
<path d="M95.8739 46.6201C96.0238 46.4889 96.0875 46.5222 96.0644 46.72L96.0333 46.9699C96.0124 47.1489 95.9312 47.2947 95.7897 47.4071C94.128 48.7096 92.7723 48.1006 91.4324 46.8917C89.4866 45.1396 88.3059 46.5076 86.7441 47.6227C83.5177 49.9309 82.2526 44.0088 79.1168 46.8137C78.3889 47.4664 77.6019 48.0693 76.5961 48.1599C76.5792 48.1617 76.5623 48.1598 76.5462 48.1542C76.53 48.1488 76.5153 48.1397 76.503 48.128C76.4905 48.1162 76.4806 48.1017 76.4741 48.0857C76.4675 48.0696 76.4644 48.0524 76.4649 48.0349L76.4711 47.6476C76.4733 47.5706 76.5128 47.5279 76.5899 47.5195C77.4893 47.4134 78.314 46.8106 78.9793 46.2077C79.9756 45.3051 81.2782 45.0896 82.4056 45.9266C82.7867 46.2119 83.1626 46.5035 83.5332 46.8011C85.3948 48.3005 86.5724 47.076 88.0123 45.9579C89.1117 45.1021 90.4173 45.2801 91.4261 46.1609C92.8505 47.4009 94.078 48.163 95.8739 46.6201Z" fill="#008995"/>
<path d="M76.6508 50.9631C78.553 50.7914 79.5962 48.0083 81.7576 48.9954C82.3605 49.2703 82.9414 49.7013 83.4287 50.1479C84.0658 50.7257 84.8874 51.1318 85.7494 50.9131C86.0326 50.8403 86.3959 50.63 86.8394 50.2822C87.2351 49.972 87.6745 49.6451 88.1575 49.3014C91.1967 47.1494 92.3337 52.5249 95.2383 50.5227C95.4883 50.35 95.7298 50.1865 95.963 50.0324C96.0129 50.0011 96.0391 50.0147 96.0411 50.0729L96.0693 50.5227C96.0713 50.581 96.0504 50.6278 96.0067 50.6633C95.2696 51.2536 94.2326 51.8627 93.2737 51.4847C92.597 51.2182 91.9557 50.807 91.3497 50.251C89.2008 48.2863 87.9295 50.4572 86.2116 51.3566C83.4942 52.7778 82.2511 47.9208 79.5025 49.9667C78.5592 50.6664 77.8877 51.3598 76.6477 51.6191C76.529 51.644 76.4707 51.5962 76.4727 51.4754L76.476 51.1568C76.476 51.0381 76.5342 50.9735 76.6508 50.9631Z" fill="#008995"/>
<path d="M13.4381 60.4623C13.7026 60.7039 14.0044 60.8944 14.3439 61.0339C15.6214 61.5617 16.4304 62.2957 15.9212 63.8887C15.7931 64.2823 15.3652 64.5914 15.0061 64.7415C13.7546 65.2661 12.7801 64.9829 12.0825 63.8919C12.05 63.8414 12.0307 63.7834 12.0263 63.7235C12.022 63.6636 12.0327 63.6036 12.0576 63.5489C12.0825 63.4941 12.1206 63.4466 12.1686 63.4105C12.2166 63.3743 12.2729 63.3509 12.3324 63.3421C12.4448 63.3254 12.5406 63.2765 12.6197 63.1953C12.6885 63.1204 12.7478 63.1276 12.7978 63.2172C13.6286 64.7351 15.79 63.6232 14.878 62.5706C14.2815 61.8773 13.2007 61.8054 12.5698 61.0683C11.5734 59.9094 12.4011 58.3571 13.8472 58.2415C14.6426 58.177 15.3121 58.4571 15.8557 59.0817C15.941 59.1817 15.9306 59.2712 15.8244 59.3504C15.6328 59.4919 15.4298 59.5825 15.2153 59.622C15.0508 59.6513 14.9197 59.5992 14.8218 59.4659C14.4949 59.0265 14.0617 58.986 13.5224 59.344C13.4324 59.4036 13.3571 59.4828 13.3025 59.576C13.2478 59.669 13.2152 59.7736 13.2071 59.8814C13.1989 59.9893 13.2155 60.0976 13.2555 60.1982C13.2956 60.299 13.358 60.3893 13.4381 60.4623Z" fill="#008995"/>
<path d="M24.8209 61.5999C24.8209 62.4945 24.4655 63.3526 23.8328 63.9852C23.2003 64.6178 22.3423 64.9732 21.4476 64.9732C20.5529 64.9732 19.6949 64.6178 19.0624 63.9852C18.4297 63.3526 18.0742 62.4945 18.0742 61.5999C18.0742 60.7052 18.4297 59.8472 19.0624 59.2146C19.6949 58.582 20.5529 58.2266 21.4476 58.2266C22.3423 58.2266 23.2003 58.582 23.8328 59.2146C24.4655 59.8472 24.8209 60.7052 24.8209 61.5999ZM23.7933 61.5811C23.7933 60.9566 23.5452 60.3575 23.1035 59.9159C22.6619 59.4742 22.0628 59.2261 21.4382 59.2261C20.8136 59.2261 20.2146 59.4742 19.7729 59.9159C19.3313 60.3575 19.0832 60.9566 19.0832 61.5811C19.0832 62.2058 19.3313 62.8047 19.7729 63.2465C20.2146 63.6881 20.8136 63.9363 21.4382 63.9363C22.0628 63.9363 22.6619 63.6881 23.1035 63.2465C23.5452 62.8047 23.7933 62.2058 23.7933 61.5811Z" fill="#008995"/>
<path d="M40.0438 60.5441C40.8028 61.1376 42.3802 61.5062 42.5458 62.6275C42.6852 63.579 42.3865 64.259 41.6493 64.6671C40.7269 65.1794 39.8169 65.095 38.9194 64.414C38.6758 64.233 38.6508 63.9174 38.5446 63.652C38.4946 63.5291 38.5331 63.4489 38.6601 63.4115C38.8372 63.3573 38.9996 63.275 39.1475 63.1647C39.2328 63.1022 39.2901 63.122 39.3192 63.2241C39.3651 63.3802 39.4524 63.5093 39.5816 63.6114C41.0497 64.767 42.5269 62.8211 40.7904 62.1309C39.6285 61.6655 38.3572 60.9815 38.7227 59.4697C38.8206 59.0678 39.0995 58.7451 39.5597 58.5014C40.553 57.9808 41.4859 58.1744 42.3584 59.0824C42.4332 59.1573 42.4312 59.2312 42.3521 59.3041C41.9377 59.6935 41.5765 59.732 41.2682 59.4197C40.9434 59.0906 40.5769 59.0344 40.1688 59.251C40.0855 59.2969 40.0116 59.3562 39.947 59.429C39.5805 59.8352 39.6128 60.2067 40.0438 60.5441Z" fill="#008995"/>
<path d="M73.7267 61.5998C73.7267 62.4903 73.3667 63.3444 72.7258 63.9741C72.085 64.6038 71.2159 64.9575 70.3097 64.9575C69.4033 64.9575 68.5342 64.6038 67.8934 63.9741C67.2527 63.3444 66.8926 62.4903 66.8926 61.5998C66.8926 60.7093 67.2527 59.8553 67.8934 59.2256C68.5342 58.5959 69.4033 58.2422 70.3097 58.2422C71.2159 58.2422 72.085 58.5959 72.7258 59.2256C73.3667 59.8553 73.7267 60.7093 73.7267 61.5998ZM72.6709 61.5812C72.6709 60.9557 72.4225 60.3559 71.9802 59.9136C71.538 59.4714 70.9382 59.2229 70.3128 59.2229C69.6873 59.2229 69.0875 59.4714 68.6453 59.9136C68.203 60.3559 67.9545 60.9557 67.9545 61.5812C67.9545 62.2065 68.203 62.8064 68.6453 63.2487C69.0875 63.6908 69.6873 63.9393 70.3128 63.9393C70.9382 63.9393 71.538 63.6908 71.9802 63.2487C72.4225 62.8064 72.6709 62.2065 72.6709 61.5812Z" fill="#008995"/>
<path d="M94.9132 59.4513C93.8575 58.3488 92.5113 60.0948 93.8668 60.7601C95.0195 61.3286 96.3062 61.7346 96.097 63.3494C96.0033 64.074 95.6347 64.5519 94.9913 64.7831C93.6065 65.2765 92.6019 64.881 91.9772 63.5962C91.9721 63.5853 91.9692 63.5735 91.9688 63.5616C91.9684 63.5497 91.9706 63.5378 91.9749 63.5267C91.9792 63.5156 91.9859 63.5054 91.9944 63.497C92.0028 63.4885 92.0129 63.4819 92.0241 63.4775L92.7049 63.2182C92.7611 63.1974 92.8049 63.212 92.8361 63.262C93.6076 64.4802 95.769 63.9928 94.9132 62.4967C94.8383 62.3677 94.731 62.2771 94.5915 62.2249C93.6253 61.8689 92.9485 61.4379 92.5612 60.9318C91.9637 60.149 92.0385 59.4149 92.7862 58.7298C93.5503 58.0301 94.5165 58.0572 95.6846 58.8111C95.9284 58.9692 95.9606 59.164 95.7815 59.3951C95.7461 59.4389 95.7045 59.4795 95.6566 59.517C95.3901 59.7127 95.1423 59.6909 94.9132 59.4513Z" fill="#008995"/>
<path d="M1.36086 62.1141L1.35773 64.7003C1.35773 64.79 1.31297 64.8337 1.22343 64.8315L0.492544 64.816C0.446734 64.816 0.423828 64.792 0.423828 64.7441L0.426949 58.5535C0.426949 58.441 0.484214 58.3796 0.59874 58.3692C1.61282 58.2775 2.52278 58.3754 3.32863 58.6628C3.44524 58.7045 3.53999 58.7752 3.61287 58.8751C4.32292 59.8664 4.25316 60.7888 3.40358 61.6425C3.32863 61.7175 3.23909 61.7623 3.13497 61.7768L2.85074 61.8174C2.66125 61.8466 2.62481 61.9371 2.74142 62.0892L4.78415 64.741C4.78808 64.7465 4.79046 64.7529 4.79107 64.7595C4.7917 64.7661 4.7905 64.7729 4.78763 64.779C4.78476 64.7851 4.78031 64.7902 4.77476 64.794C4.76919 64.7977 4.76273 64.8 4.75604 64.8004L3.76903 64.8347C3.70448 64.8368 3.65242 64.8118 3.61287 64.7598L1.6076 62.033C1.44311 61.8081 1.36086 61.8352 1.36086 62.1141ZM1.42333 59.3905L1.42957 61.0209C1.42957 61.0389 1.43315 61.0567 1.44009 61.0731C1.44704 61.0896 1.45721 61.1046 1.47001 61.1171C1.48282 61.1295 1.498 61.1394 1.51465 61.146C1.53131 61.1525 1.5491 61.1557 1.56701 61.1553L1.95744 61.1521C2.23005 61.1504 2.4909 61.0569 2.68291 60.8925C2.87491 60.728 2.98244 60.5058 2.98192 60.2745V60.1246C2.98168 60.0094 2.95463 59.8955 2.90232 59.7893C2.85002 59.683 2.7735 59.5867 2.67715 59.5057C2.5808 59.4248 2.46652 59.3607 2.34087 59.3174C2.21522 59.274 2.08067 59.2522 1.94494 59.2531L1.55451 59.2562C1.51943 59.257 1.48607 59.2716 1.46156 59.2967C1.43703 59.3217 1.42332 59.3554 1.42333 59.3905Z" fill="#008995"/>
<path d="M7.64163 60.8941L9.92173 60.8879C9.9499 60.8879 9.97691 60.899 9.99682 60.9189C10.0167 60.9388 10.0279 60.9659 10.0279 60.9941L10.0186 61.7125C10.0186 61.7264 10.0158 61.7402 10.0105 61.7531C10.0051 61.766 9.99732 61.7777 9.98746 61.7875C9.97759 61.7974 9.96589 61.8052 9.953 61.8105C9.94012 61.8159 9.92631 61.8186 9.91236 61.8186L7.63537 61.8155C7.62142 61.8155 7.60762 61.8182 7.59473 61.8236C7.58185 61.8289 7.57014 61.8368 7.56028 61.8467C7.55042 61.8564 7.5426 61.8682 7.53726 61.8811C7.53193 61.8939 7.52918 61.9077 7.52918 61.9217V63.7115C7.52918 63.7397 7.54036 63.7666 7.56028 63.7865C7.5802 63.8064 7.6072 63.8177 7.63537 63.8177H9.9186C9.94677 63.8177 9.97379 63.8289 9.99371 63.8488C10.0136 63.8687 10.0248 63.8957 10.0248 63.9238L10.0373 64.7266C10.0373 64.7547 10.0261 64.7817 10.0062 64.8016C9.98629 64.8216 9.95927 64.8327 9.9311 64.8327H6.62963C6.60146 64.8327 6.57445 64.8216 6.55453 64.8016C6.53462 64.7817 6.52344 64.7547 6.52344 64.7266V58.4579C6.52344 58.4297 6.53462 58.4026 6.55453 58.3827C6.57445 58.3628 6.60146 58.3516 6.62963 58.3516H9.90612C9.93428 58.3516 9.96129 58.3628 9.98121 58.3827C10.0011 58.4026 10.0123 58.4297 10.0123 58.4579L10.0217 59.1637C10.0217 59.1918 10.0105 59.2189 9.99058 59.2388C9.97066 59.2587 9.94366 59.27 9.91549 59.27H7.626C7.59785 59.27 7.57083 59.2811 7.55091 59.301C7.53099 59.3209 7.51981 59.348 7.51981 59.3761L7.53543 60.7878C7.53543 60.816 7.54662 60.8431 7.56652 60.863C7.58644 60.8829 7.61346 60.8941 7.64163 60.8941Z" fill="#008995"/>
<path d="M29.4176 62.0496L31.426 64.6483C31.5093 64.7544 31.4833 64.8097 31.3479 64.8139L30.6077 64.8388C30.5363 64.8408 30.4655 64.8254 30.4013 64.7938C30.3371 64.7623 30.2815 64.7156 30.2391 64.6576L28.3588 62.0808C28.163 61.8122 28.0651 61.8434 28.0651 62.1745V64.6982C28.0651 64.7879 28.0204 64.8326 27.9309 64.8326L27.2468 64.8295C27.1448 64.8295 27.0938 64.7784 27.0938 64.6764V58.5639C27.0938 58.4244 27.1635 58.3525 27.3031 58.3483C27.9527 58.3316 28.6066 58.3609 29.2646 58.4358C30.5046 58.5763 31.0449 59.6602 30.6919 60.8034C30.5087 61.401 30.1131 61.7456 29.5051 61.8372C29.3551 61.8602 29.326 61.9309 29.4176 62.0496ZM28.1119 59.3509V61.0626C28.1119 61.0857 28.1213 61.1081 28.1377 61.1245C28.1541 61.1408 28.1763 61.1501 28.1994 61.1501H28.6835C28.8137 61.1501 28.9423 61.1274 29.0624 61.0837C29.1827 61.04 29.2918 60.9758 29.3838 60.8948C29.4757 60.814 29.5486 60.7178 29.5984 60.612C29.6481 60.5064 29.6737 60.3931 29.6737 60.2786V60.135C29.6737 60.0205 29.6481 59.9072 29.5984 59.8014C29.5486 59.6957 29.4757 59.5997 29.3838 59.5187C29.2918 59.4378 29.1827 59.3737 29.0624 59.3298C28.9423 59.286 28.8137 59.2634 28.6835 59.2634H28.1994C28.1879 59.2634 28.1767 59.2657 28.166 59.2702C28.1554 59.2745 28.1458 59.281 28.1377 59.2892C28.1296 59.2973 28.1231 59.3069 28.1187 59.3175C28.1142 59.328 28.1119 59.3394 28.1119 59.3509Z" fill="#008995"/>
<path d="M35.2916 59.3761V64.7266C35.2916 64.7547 35.2804 64.7817 35.2605 64.8016C35.2406 64.8216 35.2136 64.8327 35.1854 64.8327H34.3046C34.2764 64.8327 34.2494 64.8216 34.2295 64.8016C34.2096 64.7817 34.1984 64.7547 34.1984 64.7266V59.3637C34.1984 59.3497 34.1957 59.3359 34.1904 59.323C34.185 59.31 34.1771 59.2984 34.1674 59.2885C34.1575 59.2786 34.1457 59.2708 34.1328 59.2655C34.12 59.2602 34.1062 59.2574 34.0922 59.2574L32.6335 59.2793C32.6053 59.2793 32.5784 59.2681 32.5585 59.2482C32.5386 59.2283 32.5273 59.2013 32.5273 59.1731V58.4579C32.5273 58.4297 32.5386 58.4026 32.5585 58.3827C32.5784 58.3628 32.6053 58.3516 32.6335 58.3516H36.8502C36.8779 58.3516 36.9044 58.3624 36.9242 58.3816C36.9441 58.4009 36.9556 58.4271 36.9564 58.4548L36.9751 59.1668C36.9755 59.181 36.9731 59.1952 36.9679 59.2085C36.9628 59.2218 36.9551 59.2338 36.9452 59.244C36.9353 59.2541 36.9234 59.2622 36.9104 59.2678C36.8972 59.2733 36.8832 59.2762 36.8689 59.2762L35.3978 59.27C35.3696 59.27 35.3427 59.2811 35.3227 59.301C35.3028 59.3209 35.2916 59.348 35.2916 59.3761Z" fill="#008995"/>
<path d="M50.9183 61.5297L51.9802 62.7573C52.0031 62.7835 52.0314 62.8044 52.0632 62.8183C52.0951 62.8323 52.1296 62.8388 52.164 62.8377C52.1985 62.8365 52.2322 62.8274 52.2627 62.8114C52.293 62.7953 52.3193 62.7726 52.3395 62.7448L52.8267 62.0795C52.8468 62.0517 52.8768 62.0326 52.9104 62.0263C52.9441 62.0199 52.9791 62.0267 53.0079 62.0451C53.1911 62.1617 53.3462 62.3033 53.4732 62.4699C53.5081 62.5149 53.5257 62.5707 53.5228 62.6274C53.5199 62.6841 53.4968 62.738 53.4576 62.7792L52.8454 63.4163C52.7517 63.5142 52.7434 63.6193 52.8205 63.7318C53.0266 64.0337 53.2953 64.2992 53.6264 64.5282C53.6491 64.5445 53.6668 64.5668 53.6777 64.5927C53.6884 64.6186 53.6916 64.647 53.6872 64.6746C53.6825 64.7022 53.6704 64.7281 53.6518 64.7491C53.6334 64.7702 53.6094 64.7857 53.5826 64.7938C52.9808 64.9728 52.5227 64.8167 52.2083 64.3252C52.1374 64.2129 52.05 64.1982 51.946 64.2815C50.9902 65.0592 49.4691 65.256 48.5633 64.3221C47.926 63.6631 47.9166 62.3887 48.735 61.7984C48.9703 61.6276 49.1973 61.4569 49.416 61.2861C49.5326 61.1945 49.5346 61.1018 49.4222 61.0081C48.5664 60.2961 48.6413 59.0779 49.6845 58.5906C50.4342 58.2408 51.7148 58.425 51.9615 59.3621C52.1927 60.2428 51.668 60.8644 50.9651 61.2674C50.8423 61.3361 50.8266 61.4235 50.9183 61.5297ZM50.1906 59.2309C49.8803 59.335 49.7491 59.5484 49.797 59.8713C49.847 60.2044 50.0125 60.4522 50.2936 60.6146C50.3685 60.6563 50.4435 60.6563 50.5185 60.6146C50.7933 60.4647 50.9651 60.2564 51.0338 59.9899C51.1775 59.4339 50.7278 59.0497 50.1906 59.2309ZM51.3775 63.4039L50.0969 61.8608C50.086 61.8485 50.0707 61.841 50.0543 61.8398C50.0381 61.8386 50.0218 61.844 50.0094 61.8546L49.6283 62.1701C49.3877 62.3702 49.2137 62.6302 49.1446 62.8932C49.0754 63.1562 49.1168 63.4005 49.2597 63.5725L49.5408 63.9129C49.6116 63.9984 49.7052 64.0635 49.8164 64.1044C49.9277 64.1453 50.0542 64.1613 50.1888 64.1514C50.3234 64.1415 50.4636 64.106 50.601 64.0468C50.7386 63.9877 50.8708 63.9061 50.9902 63.8067L51.368 63.4945C51.3749 63.4892 51.3805 63.4827 51.3847 63.4752C51.3889 63.4678 51.3914 63.4597 51.3924 63.4511C51.3932 63.4426 51.3924 63.4341 51.3898 63.4259C51.3872 63.4178 51.383 63.4102 51.3775 63.4039Z" fill="#008995"/>
<path d="M60.4554 61.8062L60.471 64.7359C60.4714 64.7492 60.4691 64.7623 60.4642 64.7746C60.4594 64.787 60.4521 64.7982 60.4427 64.8076C60.4334 64.8169 60.4221 64.8243 60.4098 64.8292C60.3975 64.8341 60.3843 64.8363 60.3711 64.8359L59.4964 64.8234C59.4708 64.8234 59.4462 64.8132 59.428 64.7951C59.4099 64.7768 59.3996 64.7523 59.3996 64.7266L59.3965 58.4548C59.3965 58.429 59.4068 58.4044 59.4249 58.3862C59.4431 58.3681 59.4677 58.3579 59.4933 58.3579L60.3711 58.3516C60.3967 58.3516 60.4213 58.3619 60.4395 58.38C60.4576 58.3981 60.4679 58.4228 60.4679 58.4484L60.4617 60.6442C60.4617 60.6699 60.4718 60.6945 60.49 60.7127C60.5081 60.7308 60.5328 60.741 60.5585 60.741L63.5164 60.7348C63.542 60.7348 63.5666 60.7246 63.5848 60.7065C63.6029 60.6883 63.6132 60.6637 63.6132 60.6379L63.6037 58.4516C63.6037 58.4259 63.614 58.4013 63.6322 58.3831C63.6503 58.365 63.675 58.3547 63.7007 58.3547L64.5095 58.3516C64.5353 58.3516 64.5599 58.3619 64.5781 58.38C64.5962 58.3981 64.6064 58.4228 64.6064 58.4484L64.6033 64.7359C64.6033 64.7616 64.5931 64.7863 64.5749 64.8044C64.5568 64.8226 64.5322 64.8327 64.5064 64.8327L63.6975 64.8296C63.6719 64.8296 63.6472 64.8195 63.6291 64.8013C63.6109 64.7832 63.6006 64.7585 63.6006 64.7328L63.6132 61.8062C63.6132 61.7805 63.6029 61.7558 63.5848 61.7377C63.5666 61.7195 63.542 61.7094 63.5164 61.7094H60.5523C60.5265 61.7094 60.5019 61.7195 60.4837 61.7377C60.4656 61.7558 60.4554 61.7805 60.4554 61.8062Z" fill="#008995"/>
<path d="M77.7252 59.3699L77.7219 64.739C77.7221 64.7532 77.7192 64.7673 77.7137 64.7805C77.7081 64.7935 77.7 64.8054 77.6899 64.8153C77.6796 64.8252 77.6675 64.8329 77.6542 64.8382C77.6411 64.8433 77.6269 64.8457 77.6127 64.8452L76.7912 64.8109C76.7636 64.8101 76.7373 64.7985 76.7181 64.7787C76.6989 64.7589 76.6882 64.7324 76.6882 64.7046L76.7069 59.3668C76.7069 59.3386 76.6958 59.3115 76.6759 59.2916C76.6558 59.2717 76.6289 59.2605 76.6007 59.2605L75.0671 59.2762C75.0389 59.2762 75.0119 59.2649 74.9919 59.245C74.972 59.2251 74.9609 59.1982 74.9609 59.17L74.9641 58.4579C74.9641 58.4297 74.9752 58.4026 74.9951 58.3827C75.0151 58.3628 75.0421 58.3516 75.0702 58.3516H79.3025C79.3307 58.3516 79.3576 58.3628 79.3775 58.3827C79.3975 58.4026 79.4087 58.4297 79.4087 58.4579L79.4118 59.17C79.4118 59.1982 79.4006 59.2251 79.3807 59.245C79.3608 59.2649 79.3338 59.2762 79.3056 59.2762L77.8314 59.2637C77.8032 59.2637 77.7761 59.2748 77.7562 59.2947C77.7363 59.3146 77.7252 59.3417 77.7252 59.3699Z" fill="#008995"/>
<path d="M82.3237 59.3668L82.3394 60.7911C82.3394 60.8191 82.3505 60.8462 82.3704 60.8661C82.3903 60.886 82.4174 60.8973 82.4455 60.8973L84.7475 60.891C84.7756 60.891 84.8027 60.9021 84.8226 60.922C84.8425 60.9419 84.8536 60.969 84.8536 60.9972V61.7062C84.8536 61.7344 84.8425 61.7614 84.8226 61.7813C84.8027 61.8012 84.7756 61.8124 84.7475 61.8124L82.4393 61.8186C82.4111 61.8186 82.3841 61.8299 82.3641 61.8498C82.3442 61.8697 82.3331 61.8966 82.3331 61.9248L82.3237 63.7146C82.3237 63.7428 82.3349 63.7697 82.3548 63.7896C82.3747 63.8095 82.4018 63.8208 82.43 63.8208L84.7412 63.8177C84.7555 63.8173 84.7696 63.8197 84.7828 63.8248C84.7961 63.83 84.8081 63.8377 84.8183 63.8476C84.8286 63.8575 84.8367 63.8694 84.8421 63.8825C84.8477 63.8955 84.8505 63.9096 84.8505 63.9238L84.8599 64.7235C84.86 64.7511 84.8492 64.7776 84.83 64.7974C84.8107 64.8173 84.7844 64.8288 84.7568 64.8296L81.371 64.8327C81.3428 64.8327 81.3159 64.8216 81.296 64.8016C81.2761 64.7817 81.2648 64.7547 81.2648 64.7266L81.2617 58.4579C81.2617 58.4297 81.273 58.4026 81.2929 58.3827C81.3128 58.3628 81.3397 58.3516 81.3679 58.3516L84.7475 58.3547C84.7614 58.3547 84.7752 58.3575 84.7881 58.3628C84.801 58.3682 84.8128 58.3759 84.8226 58.3858C84.8324 58.3957 84.8402 58.4074 84.8457 58.4204C84.8509 58.4332 84.8536 58.447 84.8536 58.461L84.8505 59.1637C84.8505 59.1918 84.8394 59.2189 84.8195 59.2388C84.7995 59.2587 84.7725 59.27 84.7444 59.27L82.43 59.2605C82.4018 59.2605 82.3747 59.2717 82.3548 59.2916C82.3349 59.3115 82.3237 59.3386 82.3237 59.3668Z" fill="#008995"/>
<path d="M88.201 63.8164H90.3593C90.385 63.8164 90.4097 63.8267 90.4278 63.8448C90.4459 63.8629 90.4561 63.8876 90.4561 63.9132L90.4594 64.7346C90.4594 64.7603 90.4491 64.785 90.4309 64.8031C90.4128 64.8213 90.3881 64.8314 90.3625 64.8314H87.2015C87.1759 64.8314 87.1513 64.8213 87.1331 64.8031C87.115 64.785 87.1047 64.7603 87.1047 64.7346L87.1016 58.4503C87.1016 58.4246 87.1118 58.4 87.13 58.3818C87.1481 58.3637 87.1728 58.3535 87.1984 58.3535H88.0105C88.0362 58.3535 88.0609 58.3637 88.079 58.3818C88.0971 58.4 88.1073 58.4246 88.1073 58.4503L88.1042 63.7195C88.1042 63.7453 88.1145 63.7699 88.1326 63.7881C88.1508 63.8062 88.1754 63.8164 88.201 63.8164Z" fill="#008995"/>
</svg>
